<?xml version="1.0" encoding="UTF-8"?>
<svg width="64px" height="64px" viewBox="0 0 64 64" version="1.1" xmlns="http://www.w3.org/2000/svg" xmlns:xlink="http://www.w3.org/1999/xlink">
    <title>64X64</title>
    <g id="64X64" stroke="none" stroke-width="1" fill="none" fill-rule="evenodd">
        <g id="阿里云logo备份" transform="translate(0, 12.0471)" fill="#FE6A00" fill-rule="nonzero">
            <path d="M53.3434821,0 C59.2291328,0 64,4.77149966 64,10.6565179 L64,29.2499378 C64,35.1349563 59.2291328,39.9058235 53.3434821,39.9058235 L39.23512,39.9058235 L42.6401723,35.0887968 L52.9255173,31.9373051 C54.8313353,31.3340704 56.0453929,29.566731 56.0327465,27.6552226 L56.0321138,12.2392192 C56.0453929,10.3397247 54.8313353,8.57238551 52.9255173,7.96915058 L42.6401723,4.81765915 L39.23512,0 L53.3434821,0 Z M24.76488,0 L21.3598276,4.81765915 L11.0744826,7.96915058 C9.16866491,8.57238551 7.95523954,10.3397247 7.96788594,12.2392192 L7.96725362,27.6552226 C7.95523954,29.566731 9.16866491,31.3340704 11.0744826,31.9373051 L21.3598276,35.0887968 L24.76488,39.9058235 L10.6565179,39.9058235 C4.77086734,39.9058235 0,35.1349563 0,29.2499378 L0,10.6565179 C0,4.77149966 4.77086734,0 10.6565179,0 L24.76488,0 Z M42.661355,17.4437328 L42.661355,22.2512748 L21.3388345,22.2512748 L21.3388345,17.4437328 L42.661355,17.4437328 Z" id="Logo"></path>
        </g>
    </g>
</svg>