<?xml version="1.0" encoding="UTF-8"?>
<svg width="40px" height="40px" viewBox="0 0 40 40" version="1.1" xmlns="http://www.w3.org/2000/svg" xmlns:xlink="http://www.w3.org/1999/xlink">
    <g stroke="none" stroke-width="1" fill="none" fill-rule="evenodd">
        <g>
            <rect x="0" y="0" width="40" height="40"></rect>
            <path d="M31.719834,8.9 C35.1884025,8.9 38,11.5757605 38,14.8759596 L38,25.3027734 C38,28.6029725 35.1884025,31.2783784 31.719834,31.2783784 L23.4054054,31.2783784 L25.4120923,28.5770872 L31.4735164,26.8097946 C32.5966648,26.4715126 33.3121409,25.4804246 33.3046881,24.4084893 L33.3043154,15.7635064 C33.3121409,14.6983084 32.5966648,13.7072203 31.4735164,13.3689384 L25.4120923,11.6016458 L23.4054054,8.9 Z M16.5945946,8.9 L14.5879077,11.6016458 L8.52648359,13.3689384 C7.40333516,13.7072203 6.6882317,14.6983084 6.69568458,15.7635064 L6.69531193,24.4084893 C6.6882317,25.4804246 7.40333516,26.4715126 8.52648359,26.8097946 L14.5879077,28.5770872 L16.5945946,31.2783784 L8.28016603,31.2783784 C4.8115975,31.2783784 2,28.6029725 2,25.3027734 L2,14.8759596 C2,11.5757605 4.8115975,8.9 8.28016603,8.9 L16.5945946,8.9 Z M26.3243243,17.6567568 L26.3243243,20.5756757 L13.6756757,20.5756757 L13.6756757,17.6567568 L26.3243243,17.6567568 Z" id="Logo" fill="#FE6A00"></path>
        </g>
    </g>
</svg>