<?xml version="1.0" standalone="no"?><!DOCTYPE svg PUBLIC "-//W3C//DTD SVG 1.1//EN" "http://www.w3.org/Graphics/SVG/1.1/DTD/svg11.dtd"><svg t="1706862541418" class="icon" viewBox="0 0 1024 1024" version="1.1" xmlns="http://www.w3.org/2000/svg" p-id="15783" xmlns:xlink="http://www.w3.org/1999/xlink" width="200" height="200"><path d="M934.147848 234.793928L540.890858 7.811747a57.781715 57.781715 0 0 0-58.02552 0L89.608347 234.793928A58.269325 58.269325 0 0 0 60.839392 285.017697v453.964362a58.269325 58.269325 0 0 0 28.768955 50.22377l393.256991 226.982181a57.781715 57.781715 0 0 0 58.02552 0l393.25699-226.982181A58.269325 58.269325 0 0 0 962.916803 738.982059V285.017697a58.269325 58.269325 0 0 0-28.768955-50.223769zM889.775392 731.424113l-377.897294 216.986188L133.980804 731.424113V293.794666L511.878098 75.589455l377.897294 219.424235z" p-id="15784" fill="#8a8a8a"></path><path d="M698.876307 554.421897l-107.274071 64.852052a36.570706 36.570706 0 0 0 17.797744 68.021513 35.595487 35.595487 0 0 0 19.016767-5.363704l107.517875-65.095856a36.570706 36.570706 0 0 0-38.033534-62.414005z" p-id="15785" fill="#8a8a8a"></path><path d="M323.90467 373.76261a36.570706 36.570706 0 0 0-36.083097 63.633028l187.485819 107.274071v214.060531a36.570706 36.570706 0 0 0 73.141412 0v-214.060531l187.485818-107.274071a36.570706 36.570706 0 0 0-36.083096-63.633028l-187.973428 107.517875z" p-id="15786" fill="#8a8a8a"></path></svg>